<svg width="16" height="16" viewBox="0 0 16 16" fill="none" xmlns="http://www.w3.org/2000/svg">
<path d="M4.59829 14.9476C4.866 14.9476 5.05372 14.8139 5.36829 14.519L7.79229 12.3093L12.3123 12.3159C14.308 12.3227 15.3794 11.211 15.3794 9.24902V4.11959C15.3794 2.15759 14.308 1.05273 12.3126 1.05273H3.68743C1.69886 1.05273 0.620575 2.15073 0.620575 4.11959V9.24902C0.620575 11.2176 1.69858 12.3159 3.68743 12.3093H4.00229V14.2579C4.00229 14.673 4.22315 14.9476 4.59829 14.9476ZM4.25658 4.80302C4.01572 4.80302 3.828 4.6153 3.828 4.36759C3.828 4.14673 4.01572 3.95245 4.25658 3.95245H11.75C11.9843 3.95245 12.1786 4.14673 12.1786 4.36759C12.1795 4.42445 12.1691 4.48091 12.1479 4.5337C12.1268 4.5865 12.0954 4.63455 12.0555 4.67508C12.0156 4.7156 11.9681 4.74779 11.9156 4.76975C11.8632 4.79172 11.8069 4.80303 11.75 4.80302H4.25658ZM4.25658 7.20016C4.20008 7.20093 4.14401 7.19037 4.09166 7.1691C4.03932 7.14784 3.99177 7.1163 3.95182 7.07635C3.91187 7.0364 3.88033 6.98885 3.85906 6.9365C3.8378 6.88416 3.82724 6.82808 3.828 6.77159C3.82906 6.65888 3.87477 6.55119 3.95511 6.47214C4.03545 6.39308 4.14387 6.34911 4.25658 6.34988H11.75C11.9843 6.34988 12.1786 6.54416 12.1786 6.77159C12.1786 7.01273 11.9843 7.20016 11.75 7.20016H4.25658ZM4.25658 9.60416C4.01572 9.60416 3.828 9.40987 3.828 9.17559C3.828 8.92787 4.01572 8.74702 4.25658 8.74702H9.13172C9.35944 8.74702 9.55372 8.92787 9.55372 9.17559C9.55372 9.40987 9.35944 9.60416 9.13172 9.60416H4.25658Z" fill="#333333"/>
</svg>
