<svg width="28" height="28" viewBox="0 0 28 28" fill="none" xmlns="http://www.w3.org/2000/svg">
<path d="M25.0051 5.67116L18.0051 23.7545C17.9359 23.9336 17.8235 24.0928 17.6779 24.2181C17.5324 24.3434 17.3582 24.4307 17.1708 24.4725C16.9833 24.5143 16.7885 24.5092 16.6035 24.4576C16.4186 24.406 16.2492 24.3096 16.1104 24.1768L12.1648 20.4027L9.74511 22.8212C9.66346 22.9026 9.55953 22.9579 9.44644 22.9803C9.33334 23.0027 9.21616 22.991 9.10968 22.9468C9.0032 22.9026 8.9122 22.8279 8.84817 22.732C8.78415 22.6361 8.74996 22.5234 8.74994 22.4082V17.136L2.69377 11.3435C2.54351 11.1997 2.4344 11.0184 2.37775 10.8183C2.32109 10.6183 2.31895 10.4067 2.37154 10.2055C2.42413 10.0043 2.52954 9.82078 2.67686 9.67401C2.82418 9.52723 3.00805 9.4225 3.20944 9.37066L23.6261 4.12066C23.8337 4.06749 24.0519 4.07251 24.2568 4.13516C24.4617 4.19782 24.6454 4.3157 24.7877 4.47587C24.93 4.63603 25.0255 4.8323 25.0637 5.04315C25.1018 5.254 25.0811 5.47128 25.0039 5.67116H25.0051ZM22.1666 7.00116L9.37061 15.344L11.3948 17.2807L22.1666 7.00116Z" fill="#26BDBE"/>
</svg>
