<svg width="25" height="25" viewBox="0 0 25 25" fill="none" xmlns="http://www.w3.org/2000/svg">
<path d="M22.1354 12.5H9.26563M4.72292 12.5H2.86459M4.72292 12.5C4.72292 11.8977 4.96217 11.3201 5.38803 10.8943C5.8139 10.4684 6.39149 10.2292 6.99375 10.2292C7.59602 10.2292 8.17361 10.4684 8.59948 10.8943C9.02534 11.3201 9.26459 11.8977 9.26459 12.5C9.26459 13.1023 9.02534 13.6799 8.59948 14.1057C8.17361 14.5316 7.59602 14.7708 6.99375 14.7708C6.39149 14.7708 5.8139 14.5316 5.38803 14.1057C4.96217 13.6799 4.72292 13.1023 4.72292 12.5ZM22.1354 19.3823H16.1479M16.1479 19.3823C16.1479 19.9847 15.9081 20.5629 15.4821 20.9889C15.0562 21.4149 14.4784 21.6542 13.876 21.6542C13.2738 21.6542 12.6962 21.4139 12.2703 20.988C11.8445 20.5622 11.6052 19.9846 11.6052 19.3823M16.1479 19.3823C16.1479 18.7799 15.9081 18.2027 15.4821 17.7767C15.0562 17.3508 14.4784 17.1115 13.876 17.1115C13.2738 17.1115 12.6962 17.3507 12.2703 17.7766C11.8445 18.2024 11.6052 18.78 11.6052 19.3823M11.6052 19.3823H2.86459M22.1354 5.61771H18.901M14.3583 5.61771H2.86459M14.3583 5.61771C14.3583 5.01545 14.5976 4.43785 15.0234 4.01199C15.4493 3.58613 16.0269 3.34688 16.6292 3.34688C16.9274 3.34688 17.2227 3.40561 17.4982 3.51974C17.7737 3.63386 18.024 3.80112 18.2349 4.01199C18.4458 4.22286 18.613 4.47319 18.7271 4.7487C18.8413 5.02421 18.9 5.3195 18.9 5.61771C18.9 5.91592 18.8413 6.21121 18.7271 6.48672C18.613 6.76223 18.4458 7.01257 18.2349 7.22343C18.024 7.4343 17.7737 7.60157 17.4982 7.71569C17.2227 7.82981 16.9274 7.88854 16.6292 7.88854C16.0269 7.88854 15.4493 7.6493 15.0234 7.22343C14.5976 6.79757 14.3583 6.21997 14.3583 5.61771Z" stroke="#333333" stroke-width="1.5" stroke-miterlimit="10" stroke-linecap="round"/>
</svg>
