<svg width="25" height="25" viewBox="0 0 25 25" fill="none" xmlns="http://www.w3.org/2000/svg">
<path d="M21.875 12.0547C21.875 18.8906 11.7393 24.4238 11.3076 24.6523C11.1938 24.7135 11.0667 24.7456 10.9375 24.7456C10.8083 24.7456 10.6811 24.7135 10.5674 24.6523C10.1357 24.4238 0 18.8906 0 12.0547C0.00180931 10.4494 0.640293 8.91046 1.77538 7.77538C2.91046 6.64029 4.44944 6.00181 6.05469 6C8.07129 6 9.83691 6.86719 10.9375 8.33301C12.0381 6.86719 13.8037 6 15.8203 6C17.4256 6.00181 18.9645 6.64029 20.0996 7.77538C21.2347 8.91046 21.8732 10.4494 21.875 12.0547Z" fill="#F76464"/>
<path d="M21.875 12.0547C21.875 18.8906 11.7393 24.4238 11.3076 24.6523C11.1939 24.7135 11.0667 24.7456 10.9375 24.7456C10.8083 24.7456 10.6811 24.7135 10.5674 24.6523C10.1357 24.4238 0 18.8906 0 12.0547C0.00180931 10.4494 0.640293 8.91046 1.77538 7.77538C2.91046 6.64029 4.44944 6.00181 6.05469 6C8.07129 6 9.83691 6.86719 10.9375 8.33301C12.0381 6.86719 13.8037 6 15.8203 6C17.4256 6.00181 18.9645 6.64029 20.0996 7.77538C21.2347 8.91046 21.8732 10.4494 21.875 12.0547Z" fill="#F76464"/>
</svg>
