<svg width="26" height="23" viewBox="0 0 26 23" fill="none" xmlns="http://www.w3.org/2000/svg">
<path d="M18.4688 0.4375C16.2714 0.4375 14.3212 1.30484 13 2.79563C11.6788 1.30484 9.72859 0.4375 7.53125 0.4375C5.61743 0.439816 3.78266 1.2011 2.42938 2.55438C1.0761 3.90766 0.314816 5.74243 0.3125 7.65625C0.3125 15.5684 11.8855 21.8903 12.3777 22.1561C12.5689 22.2591 12.7828 22.313 13 22.313C13.2172 22.313 13.4311 22.2591 13.6223 22.1561C14.1145 21.8903 25.6875 15.5684 25.6875 7.65625C25.6852 5.74243 24.9239 3.90766 23.5706 2.55438C22.2173 1.2011 20.3826 0.439816 18.4688 0.4375ZM17.8683 16.0081C16.345 17.3008 14.7166 18.4642 13 19.4862C11.2834 18.4642 9.65502 17.3008 8.13172 16.0081C5.76156 13.9748 2.9375 10.8741 2.9375 7.65625C2.9375 6.43791 3.42148 5.26947 4.28298 4.40798C5.14447 3.54648 6.31291 3.0625 7.53125 3.0625C9.47812 3.0625 11.1078 4.09063 11.7848 5.74656C11.8834 5.98796 12.0516 6.19454 12.268 6.33995C12.4844 6.48537 12.7393 6.56303 13 6.56303C13.2607 6.56303 13.5156 6.48537 13.732 6.33995C13.9484 6.19454 14.1166 5.98796 14.2152 5.74656C14.8922 4.09063 16.5219 3.0625 18.4688 3.0625C19.6871 3.0625 20.8555 3.54648 21.717 4.40798C22.5785 5.26947 23.0625 6.43791 23.0625 7.65625C23.0625 10.8741 20.2384 13.9748 17.8683 16.0081Z" fill="black"/>
</svg>
