<svg width="28" height="28" viewBox="0 0 28 28" fill="none" xmlns="http://www.w3.org/2000/svg">
<path d="M21.56 17.105C21.9537 16.1488 22.1675 15.125 22.1675 14C22.1675 13.19 22.0437 12.4138 21.83 11.6938C21.0987 11.8625 20.3337 11.9525 19.535 11.9525C17.8992 11.9543 16.287 11.5627 14.8342 10.8109C13.3815 10.059 12.1307 8.96895 11.1875 7.6325C10.1795 10.0746 8.27568 12.0387 5.86625 13.1225C5.82125 13.4038 5.82125 13.7075 5.82125 14C5.82125 15.074 6.0328 16.1376 6.44382 17.1299C6.85484 18.1222 7.45728 19.0238 8.21675 19.7833C9.75056 21.3171 11.8309 22.1788 14 22.1788C15.1812 22.1788 16.3175 21.92 17.3413 21.4587C17.9825 22.685 18.275 23.2925 18.2525 23.2925C16.4075 23.9113 14.9788 24.215 14 24.215C11.2775 24.215 8.67875 23.1463 6.76625 21.2225C5.60193 20.0637 4.73705 18.6389 4.24625 17.0713H2.75V11.9525H3.97625C4.34777 10.1441 5.20193 8.46996 6.44809 7.10779C7.69425 5.74562 9.28592 4.74621 11.0542 4.2156C12.8225 3.685 14.7015 3.64299 16.4917 4.09405C18.282 4.5451 19.9167 5.47238 21.2225 6.7775C22.6398 8.19003 23.6067 9.99082 24.0012 11.9525H25.25V17.0713H25.1825L21.1775 20.75L15.215 20.075V18.1963H20.6488L21.56 17.105ZM10.9288 13.7413C11.2663 13.7413 11.5925 13.8763 11.8287 14.1238C12.0662 14.3631 12.1994 14.6866 12.1994 15.0238C12.1994 15.3609 12.0662 15.6844 11.8287 15.9238C11.5925 16.16 11.2663 16.295 10.9288 16.295C10.22 16.295 9.64625 15.7325 9.64625 15.0238C9.64625 14.315 10.22 13.7413 10.9288 13.7413ZM17.06 13.7413C17.7688 13.7413 18.3313 14.315 18.3313 15.0238C18.3313 15.7325 17.7688 16.295 17.06 16.295C16.3513 16.295 15.7775 15.7325 15.7775 15.0238C15.7775 14.6836 15.9126 14.3574 16.1531 14.1169C16.3937 13.8764 16.7199 13.7413 17.06 13.7413Z" fill="black"/>
</svg>
