<svg width="16" height="16" viewBox="0 0 16 16" fill="none" xmlns="http://www.w3.org/2000/svg">
<g clip-path="url(#clip0_7_1251)">
<path d="M9.574 2.71931C9.574 2.71931 9.65067 4.03264 10.8093 5.19064C11.968 6.34931 13.2807 6.42664 13.2807 6.42664L13.8987 5.80864C14.3903 5.31702 14.6665 4.65024 14.6665 3.95498C14.6665 3.25972 14.3903 2.59293 13.8987 2.10131C13.407 1.60969 12.7403 1.3335 12.045 1.3335C11.3497 1.3335 10.683 1.60969 10.1913 2.10131L9.57333 2.71931L8 4.29264M13.2807 6.42598L9.774 9.93398L7.70667 12L7.6 12.1073C7.21467 12.492 7.022 12.6846 6.81 12.85C6.55968 13.0451 6.289 13.2125 6.00267 13.3493C5.76 13.4646 5.502 13.5506 4.98533 13.7226L2.798 14.452M2.798 14.452L2.26333 14.6306C2.1387 14.6724 2.00488 14.6786 1.87692 14.6485C1.74896 14.6185 1.63193 14.5533 1.53898 14.4603C1.44603 14.3674 1.38085 14.2503 1.35076 14.1224C1.32067 13.9944 1.32687 13.8606 1.36866 13.736L1.54733 13.2013M2.798 14.452L1.54733 13.2013M1.54733 13.2013L2.27666 11.014C2.44866 10.4973 2.53466 10.2393 2.65 9.99664C2.78733 9.70909 2.95378 9.43998 3.14933 9.18931C3.31466 8.97731 3.50733 8.78464 3.892 8.39998L5.66667 6.62598" stroke="#26BDBE" stroke-width="1.5" stroke-linecap="round"/>
</g>
<defs>
<clipPath id="clip0_7_1251">
<rect width="16" height="16" fill="white"/>
</clipPath>
</defs>
</svg>