<svg width="23" height="22" viewBox="0 0 23 22" fill="none" xmlns="http://www.w3.org/2000/svg">
<path d="M11.5 13.1667C11.7143 13.1667 11.9237 13.1032 12.1019 12.9842C12.28 12.8651 12.4189 12.6959 12.5009 12.498C12.5829 12.3 12.6043 12.0822 12.5625 11.8721C12.5207 11.6619 12.4175 11.4689 12.266 11.3174C12.1145 11.1659 11.9215 11.0627 11.7113 11.0209C11.5012 10.9791 11.2834 11.0006 11.0854 11.0825C10.8875 11.1645 10.7183 11.3034 10.5992 11.4815C10.4802 11.6597 10.4167 11.8692 10.4167 12.0834C10.4167 12.3707 10.5308 12.6463 10.734 12.8494C10.9371 13.0526 11.2127 13.1667 11.5 13.1667ZM16.9167 13.1667C17.1309 13.1667 17.3404 13.1032 17.5185 12.9842C17.6967 12.8651 17.8355 12.6959 17.9175 12.498C17.9995 12.3 18.021 12.0822 17.9792 11.8721C17.9374 11.6619 17.8342 11.4689 17.6827 11.3174C17.5312 11.1659 17.3382 11.0627 17.128 11.0209C16.9179 10.9791 16.7 11.0006 16.5021 11.0825C16.3041 11.1645 16.1349 11.3034 16.0159 11.4815C15.8969 11.6597 15.8333 11.8692 15.8333 12.0834C15.8333 12.3707 15.9475 12.6463 16.1506 12.8494C16.3538 13.0526 16.6293 13.1667 16.9167 13.1667ZM11.5 17.5001C11.7143 17.5001 11.9237 17.4365 12.1019 17.3175C12.28 17.1985 12.4189 17.0293 12.5009 16.8313C12.5829 16.6334 12.6043 16.4155 12.5625 16.2054C12.5207 15.9953 12.4175 15.8022 12.266 15.6507C12.1145 15.4992 11.9215 15.396 11.7113 15.3542C11.5012 15.3124 11.2834 15.3339 11.0854 15.4159C10.8875 15.4979 10.7183 15.6367 10.5992 15.8149C10.4802 15.993 10.4167 16.2025 10.4167 16.4167C10.4167 16.7041 10.5308 16.9796 10.734 17.1828C10.9371 17.3859 11.2127 17.5001 11.5 17.5001ZM16.9167 17.5001C17.1309 17.5001 17.3404 17.4365 17.5185 17.3175C17.6967 17.1985 17.8355 17.0293 17.9175 16.8313C17.9995 16.6334 18.021 16.4155 17.9792 16.2054C17.9374 15.9953 17.8342 15.8022 17.6827 15.6507C17.5312 15.4992 17.3382 15.396 17.128 15.3542C16.9179 15.3124 16.7 15.3339 16.5021 15.4159C16.3041 15.4979 16.1349 15.6367 16.0159 15.8149C15.8969 15.993 15.8333 16.2025 15.8333 16.4167C15.8333 16.7041 15.9475 16.9796 16.1506 17.1828C16.3538 17.3859 16.6293 17.5001 16.9167 17.5001ZM6.08332 13.1667C6.29759 13.1667 6.50704 13.1032 6.68519 12.9842C6.86334 12.8651 7.0022 12.6959 7.08419 12.498C7.16619 12.3 7.18764 12.0822 7.14584 11.8721C7.10404 11.6619 7.00086 11.4689 6.84936 11.3174C6.69785 11.1659 6.50482 11.0627 6.29467 11.0209C6.08453 10.9791 5.8667 11.0006 5.66875 11.0825C5.4708 11.1645 5.3016 11.3034 5.18256 11.4815C5.06353 11.6597 4.99999 11.8692 4.99999 12.0834C4.99999 12.3707 5.11413 12.6463 5.31729 12.8494C5.52046 13.0526 5.79601 13.1667 6.08332 13.1667ZM19.0833 2.33341H18V1.25008C18 0.962764 17.8859 0.687213 17.6827 0.484049C17.4795 0.280885 17.204 0.166748 16.9167 0.166748C16.6293 0.166748 16.3538 0.280885 16.1506 0.484049C15.9475 0.687213 15.8333 0.962764 15.8333 1.25008V2.33341H7.16666V1.25008C7.16666 0.962764 7.05252 0.687213 6.84936 0.484049C6.64619 0.280885 6.37064 0.166748 6.08332 0.166748C5.79601 0.166748 5.52046 0.280885 5.31729 0.484049C5.11413 0.687213 4.99999 0.962764 4.99999 1.25008V2.33341H3.91666C3.0547 2.33341 2.22805 2.67582 1.61856 3.28532C1.00907 3.89481 0.666656 4.72146 0.666656 5.58342V18.5834C0.666656 19.4454 1.00907 20.272 1.61856 20.8815C2.22805 21.491 3.0547 21.8334 3.91666 21.8334H19.0833C19.9453 21.8334 20.7719 21.491 21.3814 20.8815C21.9909 20.272 22.3333 19.4454 22.3333 18.5834V5.58342C22.3333 4.72146 21.9909 3.89481 21.3814 3.28532C20.7719 2.67582 19.9453 2.33341 19.0833 2.33341ZM20.1667 18.5834C20.1667 18.8707 20.0525 19.1463 19.8494 19.3494C19.6462 19.5526 19.3706 19.6667 19.0833 19.6667H3.91666C3.62934 19.6667 3.35379 19.5526 3.15062 19.3494C2.94746 19.1463 2.83332 18.8707 2.83332 18.5834V8.83342H20.1667V18.5834ZM20.1667 6.66675H2.83332V5.58342C2.83332 5.2961 2.94746 5.02055 3.15062 4.81738C3.35379 4.61422 3.62934 4.50008 3.91666 4.50008H19.0833C19.3706 4.50008 19.6462 4.61422 19.8494 4.81738C20.0525 5.02055 20.1667 5.2961 20.1667 5.58342V6.66675ZM6.08332 17.5001C6.29759 17.5001 6.50704 17.4365 6.68519 17.3175C6.86334 17.1985 7.0022 17.0293 7.08419 16.8313C7.16619 16.6334 7.18764 16.4155 7.14584 16.2054C7.10404 15.9953 7.00086 15.8022 6.84936 15.6507C6.69785 15.4992 6.50482 15.396 6.29467 15.3542C6.08453 15.3124 5.8667 15.3339 5.66875 15.4159C5.4708 15.4979 5.3016 15.6367 5.18256 15.8149C5.06353 15.993 4.99999 16.2025 4.99999 16.4167C4.99999 16.7041 5.11413 16.9796 5.31729 17.1828C5.52046 17.3859 5.79601 17.5001 6.08332 17.5001Z" fill="black"/>
</svg>
