<svg width="14" height="14" viewBox="0 0 14 14" fill="none" xmlns="http://www.w3.org/2000/svg">
<path d="M12.8127 6.28086L10.3518 8.40438L11.1016 11.5801C11.1429 11.7525 11.1323 11.9333 11.0709 12.0996C11.0096 12.2659 10.9004 12.4104 10.757 12.5147C10.6136 12.6189 10.4426 12.6784 10.2654 12.6855C10.0883 12.6926 9.91299 12.6471 9.76171 12.5546L7 10.8549L4.23664 12.5546C4.08539 12.6465 3.91032 12.6917 3.73348 12.6843C3.55664 12.6769 3.38593 12.6174 3.24286 12.5132C3.09978 12.409 2.99073 12.2648 2.92944 12.0988C2.86816 11.9327 2.85737 11.7522 2.89843 11.5801L3.65093 8.40438L1.19 6.28086C1.05618 6.1652 0.959393 6.01268 0.911737 5.84235C0.864081 5.67201 0.867663 5.49141 0.922036 5.3231C0.976409 5.15479 1.07916 5.00623 1.21747 4.89597C1.35577 4.78571 1.52349 4.71864 1.69968 4.70313L4.92625 4.44282L6.17093 1.43063C6.23831 1.26647 6.35297 1.12604 6.50036 1.02722C6.64774 0.928393 6.82118 0.875626 6.99863 0.875626C7.17608 0.875626 7.34952 0.928393 7.4969 1.02722C7.64429 1.12604 7.75895 1.26647 7.82632 1.43063L9.07047 4.44282L12.297 4.70313C12.4736 4.71806 12.6418 4.78476 12.7806 4.89487C12.9194 5.00497 13.0226 5.1536 13.0773 5.32211C13.132 5.49063 13.1358 5.67154 13.0882 5.84219C13.0405 6.01283 12.9436 6.16562 12.8094 6.28141L12.8127 6.28086Z" fill="black"/>
</svg>
